<?xml version="1.0" standalone="no"?><!DOCTYPE svg PUBLIC "-//W3C//DTD SVG 1.1//EN" "http://www.w3.org/Graphics/SVG/1.1/DTD/svg11.dtd"><svg t="1555500127022" class="icon" style="" viewBox="0 0 1024 1024" version="1.1" xmlns="http://www.w3.org/2000/svg" p-id="2078" xmlns:xlink="http://www.w3.org/1999/xlink" width="200" height="200"><defs><style type="text/css"></style></defs><path d="M952.32 491.52H464.896c-2.048-102.4-21.504-200.704-57.344-241.664-24.576-27.648-57.344-31.744-89.088-11.264-99.328 65.536-264.192 188.416-264.192 272.384 0 83.968 165.888 206.848 264.192 272.384 13.312 9.216 26.624 13.312 39.936 13.312 17.408 0 34.816-8.192 48.128-24.576 35.84-40.96 55.296-138.24 57.344-239.616H952.32c11.264 0 20.48-9.216 20.48-20.48s-9.216-20.48-20.48-20.48zM375.808 745.472c-11.264 12.288-20.48 13.312-34.816 4.096-181.248-120.832-245.76-203.776-245.76-238.592 0-33.792 64.512-116.736 245.76-238.592 6.144-4.096 12.288-6.144 17.408-6.144 6.144 0 12.288 3.072 18.432 10.24 62.464 72.704 62.464 396.288-1.024 468.992z" p-id="2079" fill="#70A8AA"></path></svg>