<?xml version="1.0" standalone="no"?><!DOCTYPE svg PUBLIC "-//W3C//DTD SVG 1.1//EN" "http://www.w3.org/Graphics/SVG/1.1/DTD/svg11.dtd"><svg t="1555911964701" class="icon" style="" viewBox="0 0 1128 1024" version="1.1" xmlns="http://www.w3.org/2000/svg" p-id="4851" xmlns:xlink="http://www.w3.org/1999/xlink" width="220.3125" height="200"><defs><style type="text/css"></style></defs><path d="M165.789 99.167h783c22.5 0 40.5 18 40.5 40.5v319.5c-40.5-31.5-117-81-175.5-81-85.5 0-162 198-256.5 198-72-4.5-171-85.5-283.5-72-45 9-108 81-148.5 135v-499.5c0-22.5 18-40.5 40.5-40.5zM354.788 423.167c-36 0-67.5-13.5-90-36s-36-58.5-36-90c0-31.5 13.5-67.5 36-90 22.5-22.5 54-36 90-36 31.5 0 63 13.5 90 36 22.5 22.5 36 58.5 36 90 0 31.5-13.5 67.5-36 90-27 22.5-58.5 36-90 36zM971.288 40.667h-828c-45 0-81 36-81 81v738c0 45 36 81 81 81h828c45 0 81-36 81-81v-738c0-45-36-81-81-81z" p-id="4852" fill="#ffffff"></path></svg>