<?xml version="1.0" standalone="no"?><!DOCTYPE svg PUBLIC "-//W3C//DTD SVG 1.1//EN" "http://www.w3.org/Graphics/SVG/1.1/DTD/svg11.dtd"><svg t="1555912517287" class="icon" style="" viewBox="0 0 1024 1024" version="1.1" xmlns="http://www.w3.org/2000/svg" p-id="9192" xmlns:xlink="http://www.w3.org/1999/xlink" width="200" height="200"><defs><style type="text/css"></style></defs><path d="M931.882 259.882l-167.764-167.764A96 96 0 0 0 696.236 64H160C106.98 64 64 106.98 64 160v704c0 53.02 42.98 96 96 96h704c53.02 0 96-42.98 96-96V327.764a96 96 0 0 0-28.118-67.882zM608 160v160H352V160h256z m244 704H172a12 12 0 0 1-12-12V172a12 12 0 0 1 12-12h84v208c0 26.51 21.49 48 48 48h352c26.51 0 48-21.49 48-48V167.764l156.486 156.486a12 12 0 0 1 3.514 8.486V852a12 12 0 0 1-12 12zM512 464c-97.046 0-176 78.954-176 176s78.954 176 176 176 176-78.954 176-176-78.954-176-176-176z m0 256c-44.112 0-80-35.888-80-80s35.888-80 80-80 80 35.888 80 80-35.888 80-80 80z" fill="#ffffff" p-id="9193"></path></svg>