<?xml version="1.0" standalone="no"?><!DOCTYPE svg PUBLIC "-//W3C//DTD SVG 1.1//EN" "http://www.w3.org/Graphics/SVG/1.1/DTD/svg11.dtd"><svg t="1555316620526" class="icon" style="" viewBox="0 0 1024 1024" version="1.1" xmlns="http://www.w3.org/2000/svg" p-id="16609" xmlns:xlink="http://www.w3.org/1999/xlink" width="200" height="200"><defs><style type="text/css"></style></defs><path d="M205.448533 891.733333c-5.794133 0-11.485867-1.646933-15.607466-6.075733-53.111467-56.942933-107.8784-177.092267-101.674667-253.124267 23.381333-286.3616 283.579733-327.995733 487.825067-330.717866V152.183467a21.333333 21.333333 0 0 1 36.420266-15.086934l319.803734 319.803734a21.316267 21.316267 0 0 1 0 30.165333L612.420267 806.869333a21.333333 21.333333 0 0 1-36.420267-15.086933V622.011733c-139.229867-18.56-239.223467 2.4576-295.150933 61.841067-49.92 52.992-57.198933 128.810667-54.254934 184.055467 0.2304 1.262933 0.3584 1.8688 0.3584 3.2 0 11.776-9.540267 20.625067-21.307733 20.625066h-0.196267z m392.849067-546.133333c-0.256 0-0.529067-0.622933-0.7936-0.6144-306.423467 0.315733-450.346667 90.052267-466.807467 291.6864-3.7888 46.472533 22.442667 117.7344 54.545067 171.528533 6.280533-62.498133 28.142933-114.875733 64.546133-153.5232 51.1488-54.280533 129.9456-81.860267 234.197334-81.860266 33.664 0 70.562133 2.875733 109.661866 8.6016l2.116267-0.059734a21.3504 21.3504 0 0 1 22.912 21.282134v137.6512l268.296533-268.296534L618.666667 203.690667v110.7968c1.1264 2.5856 3.0208 5.4272 3.0208 8.4224 0.034133 7.125333-3.0208 20.471467-20.087467 21.384533v1.3056h-3.3024z" p-id="16610" fill="#d4237a"></path></svg>