<?xml version="1.0" standalone="no"?><!DOCTYPE svg PUBLIC "-//W3C//DTD SVG 1.1//EN" "http://www.w3.org/Graphics/SVG/1.1/DTD/svg11.dtd"><svg t="1555921586690" class="icon" style="" viewBox="0 0 1024 1024" version="1.1" xmlns="http://www.w3.org/2000/svg" p-id="11469" xmlns:xlink="http://www.w3.org/1999/xlink" width="200" height="200"><defs><style type="text/css"></style></defs><path d="M603.3 486.2v-5.1c157.1-6.8 242.3-72.9 255.7-198.4C849 140.3 740.4 67.3 533.1 63.9H117v45.8c86.9-3.3 127 23.7 120.3 81.4v636c6.7 64.4-33.4 93.3-120.3 86.5v45.8h491.3c167.1-6.8 264-88.2 290.8-244.2-6.7-142.5-105.3-218.8-295.8-229zM483 109.7c153.7-3.3 228.9 57.7 225.6 183.2 3.3 118.8-68.5 176.4-215.6 173H367.7V170.8c-10-40.7 28.4-61.1 115.3-61.1z m15 803.9c-97 6.8-140.4-22.1-130.4-86.5V511.6h205.5c117 3.4 177.2 71.2 180.5 203.5C757 850.8 671.8 916.9 498 913.6z" p-id="11470" fill="#d4237a"></path></svg>