<?xml version="1.0" standalone="no"?><!DOCTYPE svg PUBLIC "-//W3C//DTD SVG 1.1//EN" "http://www.w3.org/Graphics/SVG/1.1/DTD/svg11.dtd"><svg t="1555309825527" class="icon" style="" viewBox="0 0 1024 1024" version="1.1" xmlns="http://www.w3.org/2000/svg" p-id="7635" xmlns:xlink="http://www.w3.org/1999/xlink" width="200" height="200"><defs><style type="text/css"></style></defs><path d="M512 460.8H384a25.6 25.6 0 0 1-25.6-25.6v-153.6a25.6 25.6 0 0 1 25.6-25.6H512c56.4736 0 102.4 45.9264 102.4 102.4s-45.9264 102.4-102.4 102.4zM409.6 409.6h102.4c28.2112 0 51.2-22.9888 51.2-51.2s-22.9888-51.2-51.2-51.2H409.6v102.4zM563.2 768H384a25.6 25.6 0 0 1-25.6-25.6v-153.6a25.6 25.6 0 0 1 25.6-25.6H563.2c56.4736 0 102.4 45.9264 102.4 102.4s-45.9264 102.4-102.4 102.4z m-153.6-51.2h153.6c28.2112 0 51.2-22.9888 51.2-51.2s-22.9888-51.2-51.2-51.2H409.6v102.4z" fill="" p-id="7636"></path><path d="M563.2 921.6H281.6c-42.3424 0-76.8-34.4576-76.8-76.8v-665.6C204.8 136.8576 239.2576 102.4 281.6 102.4H512c141.1584 0 256 114.8416 256 256 0 42.1888-10.3424 83.3536-30.0544 120.2688A254.4128 254.4128 0 0 1 819.2 665.6c0 141.1584-114.8416 256-256 256zM281.6 153.6a25.6 25.6 0 0 0-25.6 25.6v665.6a25.6 25.6 0 0 0 25.6 25.6H563.2c112.9472 0 204.8-91.8528 204.8-204.8a203.776 203.776 0 0 0-78.7968-161.3312 25.6 25.6 0 0 1-5.12-34.9184A203.776 203.776 0 0 0 716.8 358.4c0-112.9472-91.8528-204.8-204.8-204.8H281.6z" fill="" p-id="7637"></path></svg>