<?xml version="1.0" standalone="no"?><!DOCTYPE svg PUBLIC "-//W3C//DTD SVG 1.1//EN" "http://www.w3.org/Graphics/SVG/1.1/DTD/svg11.dtd"><svg t="1554711535680" class="icon" style="" viewBox="0 0 1024 1024" version="1.1" xmlns="http://www.w3.org/2000/svg" p-id="2111" xmlns:xlink="http://www.w3.org/1999/xlink" width="200" height="200"><defs><style type="text/css"></style></defs><path d="M901.12 227.328h-96.256c-12.288 0-23.552-7.168-27.648-19.456l-20.48-49.152c-10.24-26.624-36.864-45.056-66.56-45.056H333.824c-28.672 0-54.272 17.408-66.56 44.032l-20.48 50.176c-5.12 12.288-15.36 19.456-28.672 19.456H122.88c-39.936 0-71.68 31.744-71.68 71.68V839.68c0 39.936 31.744 71.68 71.68 71.68h778.24c39.936 0 71.68-31.744 71.68-71.68V299.008c0-39.936-31.744-71.68-71.68-71.68zM931.84 839.68c0 17.408-13.312 30.72-30.72 30.72H122.88c-17.408 0-30.72-13.312-30.72-30.72V299.008c0-17.408 13.312-30.72 30.72-30.72h96.256c28.672 0 54.272-17.408 65.536-44.032l20.48-50.176c5.12-12.288 15.36-19.456 28.672-19.456h356.352c12.288 0 23.552 7.168 27.648 19.456l20.48 50.176c11.264 26.624 36.864 44.032 65.536 44.032H901.12c17.408 0 30.72 13.312 30.72 30.72V839.68zM512 337.92c-123.904 0-225.28 101.376-225.28 225.28s101.376 225.28 225.28 225.28 225.28-101.376 225.28-225.28-101.376-225.28-225.28-225.28z m0 409.6c-101.376 0-184.32-82.944-184.32-184.32s82.944-184.32 184.32-184.32 184.32 82.944 184.32 184.32-82.944 184.32-184.32 184.32zM245.76 384c0 25.6-20.48 46.08-46.08 46.08S153.6 409.6 153.6 384s20.48-46.08 46.08-46.08 46.08 20.48 46.08 46.08z" p-id="2112" fill="#d81e06"></path></svg>