<?xml version="1.0" standalone="no"?><!DOCTYPE svg PUBLIC "-//W3C//DTD SVG 1.1//EN" "http://www.w3.org/Graphics/SVG/1.1/DTD/svg11.dtd"><svg t="1555551919553" class="icon" style="" viewBox="0 0 1024 1024" version="1.1" xmlns="http://www.w3.org/2000/svg" p-id="2135" xmlns:xlink="http://www.w3.org/1999/xlink" width="200" height="200"><defs><style type="text/css"></style></defs><path d="M821.597867 893.149867a21.341867 21.341867 0 0 1-21.282134-22.6048c3.259733-54.596267-3.592533-131.089067-54.766933-185.412267-57.873067-61.44-161.809067-82.551467-306.082133-62.062933v168.712533a21.333333 21.333333 0 0 1-36.411734 15.086933L83.2512 487.0656a21.316267 21.316267 0 0 1 0-30.165333l319.803733-319.803734a21.316267 21.316267 0 0 1 36.411734 15.086934V301.738667c149.7088 1.4592 262.2208 24.490667 343.645866 70.280533 96.196267 54.101333 149.905067 141.866667 159.624534 260.855467 6.784 83.072-58.094933 202.615467-105.531734 253.482666a21.282133 21.282133 0 0 1-15.607466 6.792534zM539.349333 572.765867c105.480533 0 185.309867 27.9552 237.2608 83.106133 42.8032 45.431467 59.938133 102.178133 65.160534 153.7024 34.312533-54.741333 62.242133-126.754133 58.453333-173.226667-16.273067-199.2192-167.569067-291.387733-476.117333-291.387733l-5.9136 0.64H418.133333c-5.649067 0-11.0592-2.858667-15.061333-6.852267-4.0192-4.002133-6.272-10.069333-6.272-15.735466V203.690667L128.503467 471.9872 396.8 740.283733V602.632533c0-11.741867 9.489067-18.0992 21.230933-18.0992h1.5104c2.705067 0 4.829867-1.5872 6.5792-1.553066l2.628267-0.776534 0.930133-0.426666c38.971733-5.7088 75.912533-9.0112 109.6704-9.0112z" p-id="2136" fill="#ffffff"></path></svg>