<?xml version="1.0" standalone="no"?><!DOCTYPE svg PUBLIC "-//W3C//DTD SVG 1.1//EN" "http://www.w3.org/Graphics/SVG/1.1/DTD/svg11.dtd"><svg t="1555464196827" class="icon" style="" viewBox="0 0 1792 1024" version="1.1" xmlns="http://www.w3.org/2000/svg" p-id="2867" xmlns:xlink="http://www.w3.org/1999/xlink" width="350" height="200"><defs><style type="text/css"></style></defs><path d="M1694.74304 320A1344 1344 0 0 0 896.02304 0 1344 1344 0 0 0 97.30304 320a238.08 238.08 0 0 0 0 384A1344 1344 0 0 0 896.02304 1024a1344 1344 0 0 0 798.72-320 238.08 238.08 0 0 0 0-384zM896.02304 896a384 384 0 1 1 384-384 384 384 0 0 1-384 384z" p-id="2868" fill="#d4237a"></path><path d="M896.02304 512m-256 0a256 256 0 1 0 512 0 256 256 0 1 0-512 0Z" p-id="2869" fill="#d4237a"></path></svg>