<?xml version="1.0" standalone="no"?><!DOCTYPE svg PUBLIC "-//W3C//DTD SVG 1.1//EN" "http://www.w3.org/Graphics/SVG/1.1/DTD/svg11.dtd"><svg t="1555500293685" class="icon" style="" viewBox="0 0 1024 1024" version="1.1" xmlns="http://www.w3.org/2000/svg" p-id="7290" xmlns:xlink="http://www.w3.org/1999/xlink" width="200" height="200"><defs><style type="text/css"></style></defs><path d="M713.728 237.568c-31.744-21.504-64.512-17.408-89.088 11.264-35.84 40.96-55.296 140.288-57.344 242.688H71.68c-11.264 0-20.48 9.216-20.48 20.48s9.216 20.48 20.48 20.48h495.616c2.048 101.376 21.504 197.632 57.344 238.592 14.336 16.384 30.72 24.576 48.128 24.576 13.312 0 26.624-4.096 39.936-13.312C812.032 716.8 977.92 593.92 977.92 509.952c0-83.968-165.888-206.848-264.192-272.384z m-23.552 510.976c-14.336 10.24-24.576 9.216-34.816-4.096-63.488-72.704-63.488-396.288 0-468.992 6.144-7.168 11.264-10.24 18.432-10.24 5.12 0 10.24 2.048 17.408 6.144 181.248 120.832 245.76 203.776 245.76 238.592s-64.512 116.736-246.784 238.592z" p-id="7291" fill="#d4237a"></path></svg>