<?xml version="1.0" standalone="no"?><!DOCTYPE svg PUBLIC "-//W3C//DTD SVG 1.1//EN" "http://www.w3.org/Graphics/SVG/1.1/DTD/svg11.dtd"><svg t="1555912219401" class="icon" style="" viewBox="0 0 1024 1024" version="1.1" xmlns="http://www.w3.org/2000/svg" p-id="7020" xmlns:xlink="http://www.w3.org/1999/xlink" width="200" height="200"><defs><style type="text/css"></style></defs><path d="M387.398 325.052l308.427 178.843L387.398 684.32V325.05z m-1.707-72.642c-6.981-4.05-14.879-4.965-22.17-3.32-2.235-0.512-4.531-0.838-6.905-0.838-17.005 0-30.797 13.777-30.797 30.782v450.42c0 17.005 13.792 30.798 30.797 30.798 2.607 0 5.09-0.42 7.51-1.04a30.13 30.13 0 0 0 23.086-3.118l371.293-217.212c11.109-6.501 14.52-12.544 15.003-31.108 0.483-18.564 0.217-30.379-13.203-38.152L385.691 252.41zM527.39 960.764h-31.03C118.628 958.212 61.5 836.652 61.5 502.291c0-324.754 71.37-439.29 434.86-439.29h31.03c363.489 0 434.858 114.536 434.858 439.29 0 334.361-57.126 455.921-434.858 458.473M496.36 0C91.88 0-0.001 140.854-0.001 502.228c0 361.389 70.718 518.985 498.207 521.71h27.338c427.488-2.725 498.207-160.321 498.207-521.71C1023.751 140.854 931.87 0 527.39 0h-31.03z" p-id="7021" fill="#ffffff"></path></svg>