<?xml version="1.0" standalone="no"?><!DOCTYPE svg PUBLIC "-//W3C//DTD SVG 1.1//EN" "http://www.w3.org/Graphics/SVG/1.1/DTD/svg11.dtd"><svg t="1556113159643" class="icon" style="" viewBox="0 0 1024 1024" version="1.1" xmlns="http://www.w3.org/2000/svg" p-id="2843" xmlns:xlink="http://www.w3.org/1999/xlink" width="200" height="200"><defs><style type="text/css"></style></defs><path d="M905.325116 737.104021l-66.421423-51.649863c-11.460711-8.904232-18.032323-22.345933-18.032323-36.882391l0-238.154226c0-41.675405-8.178483-82.124191-24.304435-120.226046-15.54433-36.77404-37.797244-69.791559-66.140323-98.141792-28.310368-28.335923-61.332998-50.593948-98.152014-66.156677-12.883589-5.448233-26.320179-10.072587-39.960183-13.749378l0-31.901295c-0.031688-44.246194-36.046246-80.243375-80.278129-80.243375-44.262549 0-80.271996 35.997181-80.271996 80.24542l0 31.87983c-13.524497 3.645103-26.962109 8.269457-39.966316 13.751422-36.74133 15.527975-69.76396 37.787023-98.146903 66.152589-28.324679 28.298102-50.586793 61.316643-66.168944 98.141792-16.126974 38.155008-24.305457 78.60175-24.305457 120.217869l0 238.130716c0 14.526236-6.570589 27.969981-18.030278 36.881369l-66.426534 51.659062c-13.141179 10.22387-22.312201 24.010046-26.523593 39.86512-3.85465 14.487393-3.307783 29.659649 1.577228 43.87412 4.878877 14.252291 13.757555 26.570613 25.680292 35.618973 13.102336 9.932548 28.811238 15.1835 45.425793 15.1835l694.261283 0c16.620688 0 32.327546-5.24073 45.426815-15.154879 11.906382-9.035072 20.789149-21.352371 25.684381-35.616929 4.893188-14.222648 5.446189-29.395926 1.598694-43.884342C927.632206 761.100779 918.460162 747.323802 905.325116 737.104021zM802.720475 731.94711l66.413245 51.642707c6.767871 5.28775 7.228875 12.82328 5.40019 18.117164-1.816418 5.30615-6.806714 10.976196-15.364426 10.976196l-694.288882 0c-8.56589 0-13.546985-5.668002-15.353182-10.976196-1.814374-5.303083-1.351325-12.848835 5.384858-18.113075l66.413245-51.646796c25.925616-20.156418 40.795306-50.552038 40.795306-83.395786l0-238.164448c0-137.798386 112.111961-249.903192 249.914436-249.903192 137.782032 0 249.872527 112.105828 249.872527 249.903192l0 238.164448C761.928236 681.39916 776.806103 711.795803 802.720475 731.94711zM512.035265 58.934958c11.754077 0 21.315573 9.559451 21.315573 21.30944l0 18.147829-42.650567 0 0-18.147829C490.700271 68.494409 500.271988 58.934958 512.035265 58.934958z" p-id="2844" fill="#d4237a"></path><path d="M406.366121 918.343122c0 58.259295 47.403716 105.656878 105.669144 105.656878 58.255206 0 105.648701-47.397583 105.648701-105.656878l0-4.075442L406.366121 914.26768 406.366121 918.343122z" p-id="2845" fill="#d4237a"></path><path d="M243.198186 128.5599c6.112652-4.951452 9.938681-11.992246 10.772782-19.827275 0.83819-7.842185-1.432078-15.523887-6.394774-21.635516-5.63427-6.92222-13.992657-10.892377-22.933688-10.892377-6.710629 0-13.285307 2.322399-18.514793 6.545035-48.965611 39.62184-89.28458 87.589801-119.837617 142.576068-31.335006 56.470475-50.820872 117.649124-57.917886 181.835033-0.8709 7.808453 1.361547 15.495265 6.286423 21.645738 4.923853 6.147406 11.940114 10.012278 19.74039 10.881133 1.051826 0.123684 2.153739 0.187059 3.272006 0.187059 15.023017 0 27.597907-11.271607 29.24771-26.21796C99.386299 301.277065 154.886723 200.028861 243.198186 128.5599z" p-id="2846" fill="#d4237a"></path><path d="M995.631879 407.137358c-7.074525-64.164444-26.551192-125.333892-57.894376-181.810501-30.523393-54.966845-70.844407-102.947072-119.836595-142.608778-5.218242-4.218547-11.797009-6.540946-18.520926-6.540946-8.922632 0-17.281018 3.980379-22.936754 10.925087-4.943275 6.11163-7.213542 13.790265-6.388641 21.625294 0.823879 7.836052 4.641731 14.86969 10.750294 19.802743 88.346216 71.50167 143.838463 172.748853 156.256959 285.094893 1.66718 14.952486 14.243092 26.226138 29.249754 26.226138 1.131556 0 2.235513-0.061331 3.263829-0.182971 7.811519-0.856589 14.835958-4.722483 19.777188-10.8842C994.258065 422.667377 996.48949 414.980565 995.631879 407.137358z" p-id="2847" fill="#d4237a"></path></svg>